<svg enable-background="new 0 0 24 24" viewBox="0 0 24 24" xmlns="http://www.w3.org/2000/svg"><path d="m23.8 2.5c0-1.2-1-2.2-2.2-2.2h-5.7c-.7 0-1.2.6-1.2 1.2s.6 1.2 1.2 1.2h5.1c.1 0 .2.1.2.2v3.3c0 .7.6 1.2 1.2 1.2s1.2-.6 1.2-1.2v-3.7z"/><path d="m21.5.3h-6.7c-.7 0-1.2.6-1.2 1.2s.6 1.2 1.2 1.2h6.2"/><path d="m.2 6.3c0 .7.6 1.2 1.2 1.2s1.4-.5 1.4-1.2v-3.3c0-.1.1-.3.2-.3h5.2c.7 0 1.2-.6 1.2-1.2s-.5-1.3-1.2-1.3h-5.7c-1.2 0-2.2 1-2.2 2.2z"/><path d="m.3 2.4v4.8c0 .7.6 1.2 1.2 1.2s1.3-.4 1.3-1.1v-4.3"/><path d="m3 2.7h6.2c.7 0 1.2-.6 1.2-1.2s-.5-1.3-1.2-1.3h-6.7"/><path d="m23.8 21.5v-3.8c0-.7-.6-1.2-1.2-1.2s-1.2.6-1.2 1.2v3.3c0 .1-.1.2-.2.2h-5.2c-.7 0-1.2.6-1.2 1.2s.6 1.2 1.2 1.2h5.7c1.1.1 2-.8 2.1-2.1z"/><path d="m23.8 21.5v-4.8c0-.7-.6-1.2-1.2-1.2s-1.2.6-1.2 1.2v4.3"/><path d="m23.8 20.5v-4.8c0-.7-.6-1.2-1.2-1.2s-1.2.6-1.2 1.2v4.3"/><path d="m21 21.2h-6.2c-.7 0-1.2.6-1.2 1.2s.6 1.2 1.2 1.2h6.7"/><path d="m.2 21.5c0 1.2 1 2.2 2.2 2.2h5.7c.7 0 1.2-.6 1.2-1.2s-.6-1.2-1.2-1.2h-5.1c-.1 0-.2-.1-.2-.2v-3.3c0-.7-.6-1.2-1.2-1.2s-1.4.4-1.4 1.1z"/><path d="m2.8 21v-4.3c0-.7-.6-1.2-1.2-1.2s-1.4.5-1.4 1.2v4.8"/><path d="m2.8 20v-4.3c0-.7-.6-1.2-1.2-1.2s-1.4.5-1.4 1.2v4.8"/><path d="m2.5 23.7h6.7c.7 0 1.2-.6 1.2-1.2s-.6-1.2-1.2-1.2h-6.2"/></svg>