<?xml version="1.0" encoding="utf-8"?>
<!-- Generator: Adobe Illustrator 28.3.0, SVG Export Plug-In . SVG Version: 6.00 Build 0)  -->
<svg version="1.1" id="Layer_1" xmlns="http://www.w3.org/2000/svg" xmlns:xlink="http://www.w3.org/1999/xlink" x="0px" y="0px"
	 viewBox="0 0 24 24" style="enable-background:new 0 0 24 24;" xml:space="preserve">
<style type="text/css">
	.st0{fill-rule:evenodd;clip-rule:evenodd;}
</style>
<path class="st0" d="M3.4,24c-0.5,0-0.8-0.4-0.8-0.8V0.8C2.6,0.4,3,0,3.4,0h9.7c2.2,0,4.1,0.6,5.4,1.6c1.3,1.1,2,2.6,2,4.5
	s-1,3.5-2.5,4.5c-0.2,0.1-0.3,0.3-0.3,0.5s0.1,0.4,0.3,0.5c2.1,0.9,3.5,2.9,3.5,5.4c0,2.1-0.8,3.9-2.3,5.1S15.6,24,13.1,24H3.4z
	 M8,4.2v5.6h3.3c1.3,0,2.2-0.3,2.9-0.8c0.6-0.5,1-1.2,1-2.1s-0.3-1.5-0.9-2c-0.6-0.5-1.4-0.7-2.5-0.7C10.4,4.2,9.2,4.2,8,4.2z
	 M8,13.5v6.3h4c1.4,0,2.4-0.3,3.1-0.8c0.7-0.5,1-1.3,1-2.4c0-1-0.4-1.8-1.1-2.3c-0.7-0.5-1.8-0.8-3.2-0.8C10.6,13.5,9.2,13.5,8,13.5
	z"/>
</svg>
