<?xml version="1.0" encoding="utf-8"?>
<!-- Generator: Adobe Illustrator 28.3.0, SVG Export Plug-In . SVG Version: 6.00 Build 0)  -->
<svg version="1.1" id="Layer_1" xmlns="http://www.w3.org/2000/svg" xmlns:xlink="http://www.w3.org/1999/xlink" x="0px" y="0px"
	 viewBox="0 0 24 24" style="enable-background:new 0 0 24 24;" xml:space="preserve">
<style type="text/css">
	.st0{fill-rule:evenodd;clip-rule:evenodd;}
</style>
<path class="st0" d="M2.1,5.8c1.1,0,2.1-0.9,2.1-2.1S3.2,1.7,2.1,1.7S0,2.6,0,3.8S0.9,5.8,2.1,5.8z M6.2,3.8c0-0.8,0.6-1.4,1.4-1.4
	h15.1C23.4,2.4,24,3,24,3.8s-0.6,1.4-1.4,1.4H7.5C6.8,5.1,6.2,4.5,6.2,3.8z M7.5,10.6c-0.8,0-1.4,0.6-1.4,1.4s0.6,1.4,1.4,1.4h15.1
	c0.8,0,1.4-0.6,1.4-1.4s-0.6-1.4-1.4-1.4H7.5z M7.5,18.9c-0.8,0-1.4,0.6-1.4,1.4c0,0.8,0.6,1.4,1.4,1.4h15.1c0.8,0,1.4-0.6,1.4-1.4
	c0-0.8-0.6-1.4-1.4-1.4H7.5z M4.1,12c0,1.1-0.9,2.1-2.1,2.1S0,13.1,0,12s0.9-2.1,2.1-2.1S4.1,10.9,4.1,12z M2.1,22.3
	c1.1,0,2.1-0.9,2.1-2.1s-0.9-2.1-2.1-2.1S0,19.1,0,20.2S0.9,22.3,2.1,22.3z"/>
</svg>
