<?xml version="1.0" encoding="utf-8"?>
<!-- Generator: Adobe Illustrator 28.3.0, SVG Export Plug-In . SVG Version: 6.00 Build 0)  -->
<svg version="1.1" id="Layer_1" xmlns="http://www.w3.org/2000/svg" xmlns:xlink="http://www.w3.org/1999/xlink" x="0px" y="0px"
	 viewBox="0 0 64 64" style="enable-background:new 0 0 64 64;" xml:space="preserve">
<style type="text/css">
	.st0{fill-rule:evenodd;clip-rule:evenodd;}
</style>
<path class="st0" d="M58.7,57.3H5.3l0,0C2.4,57.3,0,54.9,0,52V12l0,0c0-2.9,2.4-5.3,5.3-5.3h53.3l0,0c2.9,0,5.3,2.4,5.3,5.3v40l0,0
	C64,54.9,61.6,57.3,58.7,57.3z M58.7,50l0-36.7c0-0.7-0.6-1.3-1.3-1.3H6.7l0,0c-0.7,0-1.3,0.6-1.3,1.3v36.7v0c0,0.3,0.3,0.6,0.6,0.6
	c0.2,0,0.4-0.1,0.5-0.3l5.9-8.4l0,0c0.3-0.4,0.8-0.7,1.4-0.7h1.8l7-10l0,0c0.3-0.4,0.8-0.7,1.4-0.7h1.9l0,0c0.5,0,1.1,0.3,1.4,0.7
	l14.2,20.2l0,0c0.2,0.3,0.5,0.4,0.8,0.4H43l0,0c0.6,0,1-0.5,1-1c0-0.2-0.1-0.4-0.2-0.6l-3.5-4.9l0,0c-0.4-0.6-0.4-1.4,0-2l3.1-4.1
	l0,0c0.3-0.4,0.8-0.7,1.3-0.7h2.8l0,0c0.5,0,1,0.2,1.3,0.7l8.4,11.1l0,0c0.2,0.3,0.7,0.4,1,0.1C58.6,50.4,58.7,50.2,58.7,50z
	 M44,30.7L44,30.7c-3.7,0-6.7-3-6.7-6.7s3-6.7,6.7-6.7s6.7,3,6.7,6.7l0,0C50.7,27.7,47.7,30.7,44,30.7z"/>
</svg>
