<?xml version="1.0" encoding="utf-8"?>
<!-- Generator: Adobe Illustrator 28.3.0, SVG Export Plug-In . SVG Version: 6.00 Build 0)  -->
<svg version="1.1" id="Layer_1" xmlns="http://www.w3.org/2000/svg" xmlns:xlink="http://www.w3.org/1999/xlink" x="0px" y="0px"
	 viewBox="0 0 24 24" style="enable-background:new 0 0 24 24;" xml:space="preserve">
<style type="text/css">
	.st0{fill-rule:evenodd;clip-rule:evenodd;}
</style>
<path class="st0" d="M0.4,11.1c-0.5,0.5-0.5,1.4,0,1.9l5.3,5.3c0.5,0.5,1.4,0.5,1.9,0c0.5-0.5,0.5-1.4,0-1.9l0,0L3.2,12l4.4-4.4
	c0.5-0.5,0.5-1.4,0-1.9s-1.3-0.5-1.9,0C5.7,5.7,0.4,11.1,0.4,11.1z M18.3,18.3l5.3-5.3c0.5-0.5,0.5-1.4,0-1.9l-5.3-5.3
	c-0.5-0.5-1.4-0.5-1.9,0c-0.5,0.5-0.5,1.4,0,1.9l0,0l4.4,4.4l-4.4,4.4c-0.5,0.5-0.5,1.4,0,1.9C16.9,18.8,17.8,18.8,18.3,18.3z"/>
</svg>
