<?xml version="1.0" encoding="utf-8"?>
<!-- Generator: Adobe Illustrator 28.3.0, SVG Export Plug-In . SVG Version: 6.00 Build 0)  -->
<svg version="1.1" id="Layer_1" xmlns="http://www.w3.org/2000/svg" xmlns:xlink="http://www.w3.org/1999/xlink" x="0px" y="0px"
	 viewBox="0 0 24 24" style="enable-background:new 0 0 24 24;" xml:space="preserve">
<g>
	<path d="M1.1,6.2c0.6-0.7,1.4-1.3,2.4-1.4c2.6-0.4,4.2,0.4,5.3,1.9c2,2.3,1.9,5.1,0.6,7.6c-1.3,2.4-4,4.6-7.2,5.1
		c-0.4,0-0.7-0.1-1-0.4c-0.1-0.3-0.1-0.7,0.3-1.1c0.4-0.4,0.9-0.9,1.1-1.1c0.3-0.4,0.6-0.7,0.7-1.1s0.3-0.9,0-1.3
		c-0.1-0.4-0.6-0.7-1-1C1.1,12.6,0,11.2,0,9.3C0.1,7.9,0.4,6.9,1.1,6.2z"/>
	<path d="M14.6,6.2c0.6-0.7,1.6-1.1,2.6-1.4c2.4-0.4,4.2,0.4,5.3,1.9c2,2.3,1.9,5.1,0.6,7.6c-1.3,2.4-4,4.6-7.2,5.1
		c-0.4,0-0.7-0.1-1-0.4c-0.1-0.3-0.1-0.7,0.3-1.1c0.4-0.4,0.9-0.9,1.1-1.1c0.3-0.4,0.6-0.7,0.7-1.1c0.1-0.4,0.3-0.9,0-1.3
		c-0.1-0.4-0.6-0.7-1-1c-1.3-0.6-2.4-2-2.4-3.9C13.6,7.9,14,6.9,14.6,6.2z"/>
</g>
</svg>
